<svg version="1" xmlns="http://www.w3.org/2000/svg" width="346.667" height="346.667" viewBox="0 0 260.000000 260.000000"><path d="M63 103.7c-5 36.2-9.4 67-9.7 68.5l-.5 2.8h92l1.1-8.2c.7-4.6 1.4-9.8 1.8-11.6l.5-3.2h-31.1c-28.5 0-31.1-.1-31.1-1.7 0-1.4 14.1-102.7 15.3-110.1.4-2.2.4-2.2-14.3-2.2H72.3L63 103.7z"/><path d="M175.5 40.2c-.3 1.3-4.8 32.9-10 70.3-5.3 37.4-10.2 70.3-11 73.2-.9 2.8-2.7 6.5-4 8.2-2.4 2.8-8.8 5.6-14.5 6.3-2.3.3-2.6.9-3.7 8.3-.6 4.4-1.2 9.5-1.2 11.4l-.1 3.3 11.8-.4c14.1-.6 20.8-2.8 28-9.3 5.1-4.6 10.3-13.2 12.1-20.2.9-3.3 22.1-149.5 22.1-152.6 0-.4-6.5-.7-14.5-.7-14.2 0-14.5 0-15 2.2z"/></svg>